<svg width="80px" height="80px" viewBox="0 0 80 80" xmlns="http://www.w3.org/2000/svg">
 	<style>
		.fr-artwork-decorative {
			fill: #ECECFF;
		}
		.fr-artwork-minor {
			fill: #E1000F;
		}
		.fr-artwork-major {
			fill: #000091;
		}
	</style>
	<symbol id="artwork-decorative">
		<path fill-rule="evenodd" clip-rule="evenodd" d="M16 6.99951C15.4486 6.99951 15 6.55091 15 5.99951C15 5.44806 15.4486 4.99951 16 4.99951C16.5514 4.99951 17 5.44806 17 5.99951C17 6.55091 16.5514 6.99951 16 6.99951Z" fill="#ECECFE"/>
		<path fill-rule="evenodd" clip-rule="evenodd" d="M20 74.9995C19.4486 74.9995 19 74.5509 19 73.9995C19 73.4481 19.4486 72.9995 20 72.9995C20.5514 72.9995 21 73.4481 21 73.9995C21 74.5509 20.5514 74.9995 20 74.9995Z" fill="#ECECFE"/>
		<path fill-rule="evenodd" clip-rule="evenodd" d="M62 72.9995C61.4486 72.9995 61 72.5509 61 71.9995C61 71.4481 61.4486 70.9995 62 70.9995C62.5514 70.9995 63 71.4481 63 71.9995C63 72.5509 62.5514 72.9995 62 72.9995Z" fill="#ECECFE"/>
		<path fill-rule="evenodd" clip-rule="evenodd" d="M64 8.99951C63.4486 8.99951 63 8.55091 63 7.99951C63 7.44806 63.4486 6.99951 64 6.99951C64.5514 6.99951 65 7.44806 65 7.99951C65 8.55091 64.5514 8.99951 64 8.99951Z" fill="#ECECFE"/>
		<path fill-rule="evenodd" clip-rule="evenodd" d="M40 78.9995C39.4486 78.9995 39 78.5509 39 77.9995C39 77.4481 39.4486 76.9995 40 76.9995C40.5514 76.9995 41 77.4481 41 77.9995C41 78.5509 40.5514 78.9995 40 78.9995Z" fill="#ECECFE"/>
		<path d="M48.82 39.8995C48.75 39.8995 48.68 39.8995 48.6 39.8895C47.75 39.7995 47.06 39.1995 46.86 38.3595C46.56 37.0895 45.91 35.9295 44.99 35.0095C44.07 34.0895 42.91 33.4395 41.64 33.1395C41.1 33.0095 40.77 32.4695 40.9 31.9295C41.03 31.3895 41.57 31.0595 42.11 31.1895C43.74 31.5795 45.22 32.4095 46.41 33.5995C47.6 34.7895 48.43 36.2695 48.82 37.8995L54.84 25.1695L46.67 29.0395C46.17 29.2795 45.58 29.0595 45.34 28.5595C45.1 28.0595 45.32 27.4595 45.82 27.2295L56.52 22.1595C56.9 21.9795 57.36 22.0595 57.65 22.3595C57.95 22.6595 58.03 23.1095 57.85 23.4995L50.62 38.7595C50.28 39.4595 49.59 39.8895 48.82 39.8995Z" fill="#E1000F"/>
		<path d="M40.05 62.9995C38.85 62.9995 37.65 62.9095 36.44 62.7195C35.89 62.6295 35.52 62.1195 35.61 61.5795C35.7 61.0295 36.21 60.6695 36.75 60.7495C42.29 61.6195 47.84 60.2795 52.37 56.9695C52.82 56.6395 53.44 56.7395 53.77 57.1895C54.1 57.6395 54 58.2595 53.55 58.5895C49.57 61.4895 44.88 62.9995 40.05 62.9995Z" fill="#E1000F"/>
		<path d="M40 68.9995C24.01 68.9995 11 55.9895 11 39.9995C11 24.0095 24.01 10.9995 40 10.9995C55.99 10.9995 69 24.0095 69 39.9995C69 45.2395 67.58 50.3795 64.91 54.8595C64.63 55.3295 64.01 55.4895 63.54 55.2095C63.07 54.9295 62.91 54.3095 63.19 53.8395C65.68 49.6695 67 44.8795 67 39.9995C67 25.1095 54.89 12.9995 40 12.9995C25.11 12.9995 13 25.1095 13 39.9995C13 54.8895 25.11 66.9995 40 66.9995C47.21 66.9995 53.99 64.1895 59.09 59.0895C59.48 58.6995 60.11 58.6995 60.5 59.0895C60.89 59.4795 60.89 60.1095 60.5 60.4995C55.03 65.9795 47.75 68.9995 40 68.9995Z" fill="#000091"/>
		<path d="M8 40.9995C7.45 40.9995 7 40.5495 7 39.9995C7 34.3695 8.44 28.8095 11.18 23.9195C11.45 23.4395 12.06 23.2695 12.54 23.5295C13.02 23.7995 13.19 24.4095 12.93 24.8895C10.36 29.4895 9 34.7095 9 39.9995C9 40.5495 8.55 40.9995 8 40.9995Z" fill="#000091"/>
		<path d="M40 45.0595C37.21 45.0595 34.94 42.7895 34.94 39.9995C34.94 37.2095 37.21 34.9395 40 34.9395C42.79 34.9395 45.06 37.2095 45.06 39.9995C45.06 42.7895 42.79 45.0595 40 45.0595ZM40 36.9395C38.31 36.9395 36.94 38.3095 36.94 39.9995C36.94 41.6895 38.31 43.0595 40 43.0595C41.69 43.0595 43.06 41.6895 43.06 39.9995C43.06 38.3095 41.69 36.9395 40 36.9395Z" fill="#000091"/>
		<path d="M23.06 57.9395C22.8 57.9395 22.54 57.8395 22.35 57.6495C22.05 57.3495 21.97 56.8995 22.15 56.5195L29.38 41.2595C29.75 40.4795 30.54 40.0395 31.39 40.1295C32.24 40.2195 32.93 40.8195 33.13 41.6595C33.43 42.9295 34.08 44.0895 35 45.0095C35.92 45.9295 37.08 46.5795 38.35 46.8795C38.89 47.0095 39.22 47.5495 39.09 48.0895C38.96 48.6295 38.42 48.9595 37.88 48.8295C36.25 48.4395 34.77 47.6095 33.58 46.4195C32.39 45.2295 31.56 43.7495 31.18 42.1195L25.16 54.8495L33.8 50.7595C34.3 50.5295 34.9 50.7395 35.13 51.2395C35.37 51.7395 35.15 52.3295 34.65 52.5695L23.48 57.8595C23.36 57.8995 23.21 57.9395 23.06 57.9395Z" fill="#000091"/>
  </symbol>
  <symbol id="artwork-minor">
	  <path fill-rule="evenodd" clip-rule="evenodd" d="M16 6.99951C15.4486 6.99951 15 6.55091 15 5.99951C15 5.44806 15.4486 4.99951 16 4.99951C16.5514 4.99951 17 5.44806 17 5.99951C17 6.55091 16.5514 6.99951 16 6.99951Z" fill="#ECECFE"/>
	  <path fill-rule="evenodd" clip-rule="evenodd" d="M20 74.9995C19.4486 74.9995 19 74.5509 19 73.9995C19 73.4481 19.4486 72.9995 20 72.9995C20.5514 72.9995 21 73.4481 21 73.9995C21 74.5509 20.5514 74.9995 20 74.9995Z" fill="#ECECFE"/>
	  <path fill-rule="evenodd" clip-rule="evenodd" d="M62 72.9995C61.4486 72.9995 61 72.5509 61 71.9995C61 71.4481 61.4486 70.9995 62 70.9995C62.5514 70.9995 63 71.4481 63 71.9995C63 72.5509 62.5514 72.9995 62 72.9995Z" fill="#ECECFE"/>
	  <path fill-rule="evenodd" clip-rule="evenodd" d="M64 8.99951C63.4486 8.99951 63 8.55091 63 7.99951C63 7.44806 63.4486 6.99951 64 6.99951C64.5514 6.99951 65 7.44806 65 7.99951C65 8.55091 64.5514 8.99951 64 8.99951Z" fill="#ECECFE"/>
	  <path fill-rule="evenodd" clip-rule="evenodd" d="M40 78.9995C39.4486 78.9995 39 78.5509 39 77.9995C39 77.4481 39.4486 76.9995 40 76.9995C40.5514 76.9995 41 77.4481 41 77.9995C41 78.5509 40.5514 78.9995 40 78.9995Z" fill="#ECECFE"/>
	  <path d="M48.82 39.8995C48.75 39.8995 48.68 39.8995 48.6 39.8895C47.75 39.7995 47.06 39.1995 46.86 38.3595C46.56 37.0895 45.91 35.9295 44.99 35.0095C44.07 34.0895 42.91 33.4395 41.64 33.1395C41.1 33.0095 40.77 32.4695 40.9 31.9295C41.03 31.3895 41.57 31.0595 42.11 31.1895C43.74 31.5795 45.22 32.4095 46.41 33.5995C47.6 34.7895 48.43 36.2695 48.82 37.8995L54.84 25.1695L46.67 29.0395C46.17 29.2795 45.58 29.0595 45.34 28.5595C45.1 28.0595 45.32 27.4595 45.82 27.2295L56.52 22.1595C56.9 21.9795 57.36 22.0595 57.65 22.3595C57.95 22.6595 58.03 23.1095 57.85 23.4995L50.62 38.7595C50.28 39.4595 49.59 39.8895 48.82 39.8995Z" fill="#E1000F"/>
	  <path d="M40.05 62.9995C38.85 62.9995 37.65 62.9095 36.44 62.7195C35.89 62.6295 35.52 62.1195 35.61 61.5795C35.7 61.0295 36.21 60.6695 36.75 60.7495C42.29 61.6195 47.84 60.2795 52.37 56.9695C52.82 56.6395 53.44 56.7395 53.77 57.1895C54.1 57.6395 54 58.2595 53.55 58.5895C49.57 61.4895 44.88 62.9995 40.05 62.9995Z" fill="#E1000F"/>
	  <path d="M40 68.9995C24.01 68.9995 11 55.9895 11 39.9995C11 24.0095 24.01 10.9995 40 10.9995C55.99 10.9995 69 24.0095 69 39.9995C69 45.2395 67.58 50.3795 64.91 54.8595C64.63 55.3295 64.01 55.4895 63.54 55.2095C63.07 54.9295 62.91 54.3095 63.19 53.8395C65.68 49.6695 67 44.8795 67 39.9995C67 25.1095 54.89 12.9995 40 12.9995C25.11 12.9995 13 25.1095 13 39.9995C13 54.8895 25.11 66.9995 40 66.9995C47.21 66.9995 53.99 64.1895 59.09 59.0895C59.48 58.6995 60.11 58.6995 60.5 59.0895C60.89 59.4795 60.89 60.1095 60.5 60.4995C55.03 65.9795 47.75 68.9995 40 68.9995Z" fill="#000091"/>
	  <path d="M8 40.9995C7.45 40.9995 7 40.5495 7 39.9995C7 34.3695 8.44 28.8095 11.18 23.9195C11.45 23.4395 12.06 23.2695 12.54 23.5295C13.02 23.7995 13.19 24.4095 12.93 24.8895C10.36 29.4895 9 34.7095 9 39.9995C9 40.5495 8.55 40.9995 8 40.9995Z" fill="#000091"/>
	  <path d="M40 45.0595C37.21 45.0595 34.94 42.7895 34.94 39.9995C34.94 37.2095 37.21 34.9395 40 34.9395C42.79 34.9395 45.06 37.2095 45.06 39.9995C45.06 42.7895 42.79 45.0595 40 45.0595ZM40 36.9395C38.31 36.9395 36.94 38.3095 36.94 39.9995C36.94 41.6895 38.31 43.0595 40 43.0595C41.69 43.0595 43.06 41.6895 43.06 39.9995C43.06 38.3095 41.69 36.9395 40 36.9395Z" fill="#000091"/>
	  <path d="M23.06 57.9395C22.8 57.9395 22.54 57.8395 22.35 57.6495C22.05 57.3495 21.97 56.8995 22.15 56.5195L29.38 41.2595C29.75 40.4795 30.54 40.0395 31.39 40.1295C32.24 40.2195 32.93 40.8195 33.13 41.6595C33.43 42.9295 34.08 44.0895 35 45.0095C35.92 45.9295 37.08 46.5795 38.35 46.8795C38.89 47.0095 39.22 47.5495 39.09 48.0895C38.96 48.6295 38.42 48.9595 37.88 48.8295C36.25 48.4395 34.77 47.6095 33.58 46.4195C32.39 45.2295 31.56 43.7495 31.18 42.1195L25.16 54.8495L33.8 50.7595C34.3 50.5295 34.9 50.7395 35.13 51.2395C35.37 51.7395 35.15 52.3295 34.65 52.5695L23.48 57.8595C23.36 57.8995 23.21 57.9395 23.06 57.9395Z" fill="#000091"/>
  </symbol>
  <symbol id="artwork-major">
	  <path fill-rule="evenodd" clip-rule="evenodd" d="M16 6.99951C15.4486 6.99951 15 6.55091 15 5.99951C15 5.44806 15.4486 4.99951 16 4.99951C16.5514 4.99951 17 5.44806 17 5.99951C17 6.55091 16.5514 6.99951 16 6.99951Z" fill="#ECECFE"/>
	  <path fill-rule="evenodd" clip-rule="evenodd" d="M20 74.9995C19.4486 74.9995 19 74.5509 19 73.9995C19 73.4481 19.4486 72.9995 20 72.9995C20.5514 72.9995 21 73.4481 21 73.9995C21 74.5509 20.5514 74.9995 20 74.9995Z" fill="#ECECFE"/>
	  <path fill-rule="evenodd" clip-rule="evenodd" d="M62 72.9995C61.4486 72.9995 61 72.5509 61 71.9995C61 71.4481 61.4486 70.9995 62 70.9995C62.5514 70.9995 63 71.4481 63 71.9995C63 72.5509 62.5514 72.9995 62 72.9995Z" fill="#ECECFE"/>
	  <path fill-rule="evenodd" clip-rule="evenodd" d="M64 8.99951C63.4486 8.99951 63 8.55091 63 7.99951C63 7.44806 63.4486 6.99951 64 6.99951C64.5514 6.99951 65 7.44806 65 7.99951C65 8.55091 64.5514 8.99951 64 8.99951Z" fill="#ECECFE"/>
	  <path fill-rule="evenodd" clip-rule="evenodd" d="M40 78.9995C39.4486 78.9995 39 78.5509 39 77.9995C39 77.4481 39.4486 76.9995 40 76.9995C40.5514 76.9995 41 77.4481 41 77.9995C41 78.5509 40.5514 78.9995 40 78.9995Z" fill="#ECECFE"/>
	  <path d="M48.82 39.8995C48.75 39.8995 48.68 39.8995 48.6 39.8895C47.75 39.7995 47.06 39.1995 46.86 38.3595C46.56 37.0895 45.91 35.9295 44.99 35.0095C44.07 34.0895 42.91 33.4395 41.64 33.1395C41.1 33.0095 40.77 32.4695 40.9 31.9295C41.03 31.3895 41.57 31.0595 42.11 31.1895C43.74 31.5795 45.22 32.4095 46.41 33.5995C47.6 34.7895 48.43 36.2695 48.82 37.8995L54.84 25.1695L46.67 29.0395C46.17 29.2795 45.58 29.0595 45.34 28.5595C45.1 28.0595 45.32 27.4595 45.82 27.2295L56.52 22.1595C56.9 21.9795 57.36 22.0595 57.65 22.3595C57.95 22.6595 58.03 23.1095 57.85 23.4995L50.62 38.7595C50.28 39.4595 49.59 39.8895 48.82 39.8995Z" fill="#E1000F"/>
	  <path d="M40.05 62.9995C38.85 62.9995 37.65 62.9095 36.44 62.7195C35.89 62.6295 35.52 62.1195 35.61 61.5795C35.7 61.0295 36.21 60.6695 36.75 60.7495C42.29 61.6195 47.84 60.2795 52.37 56.9695C52.82 56.6395 53.44 56.7395 53.77 57.1895C54.1 57.6395 54 58.2595 53.55 58.5895C49.57 61.4895 44.88 62.9995 40.05 62.9995Z" fill="#E1000F"/>
	  <path d="M40 68.9995C24.01 68.9995 11 55.9895 11 39.9995C11 24.0095 24.01 10.9995 40 10.9995C55.99 10.9995 69 24.0095 69 39.9995C69 45.2395 67.58 50.3795 64.91 54.8595C64.63 55.3295 64.01 55.4895 63.54 55.2095C63.07 54.9295 62.91 54.3095 63.19 53.8395C65.68 49.6695 67 44.8795 67 39.9995C67 25.1095 54.89 12.9995 40 12.9995C25.11 12.9995 13 25.1095 13 39.9995C13 54.8895 25.11 66.9995 40 66.9995C47.21 66.9995 53.99 64.1895 59.09 59.0895C59.48 58.6995 60.11 58.6995 60.5 59.0895C60.89 59.4795 60.89 60.1095 60.5 60.4995C55.03 65.9795 47.75 68.9995 40 68.9995Z" fill="#000091"/>
	  <path d="M8 40.9995C7.45 40.9995 7 40.5495 7 39.9995C7 34.3695 8.44 28.8095 11.18 23.9195C11.45 23.4395 12.06 23.2695 12.54 23.5295C13.02 23.7995 13.19 24.4095 12.93 24.8895C10.36 29.4895 9 34.7095 9 39.9995C9 40.5495 8.55 40.9995 8 40.9995Z" fill="#000091"/>
	  <path d="M40 45.0595C37.21 45.0595 34.94 42.7895 34.94 39.9995C34.94 37.2095 37.21 34.9395 40 34.9395C42.79 34.9395 45.06 37.2095 45.06 39.9995C45.06 42.7895 42.79 45.0595 40 45.0595ZM40 36.9395C38.31 36.9395 36.94 38.3095 36.94 39.9995C36.94 41.6895 38.31 43.0595 40 43.0595C41.69 43.0595 43.06 41.6895 43.06 39.9995C43.06 38.3095 41.69 36.9395 40 36.9395Z" fill="#000091"/>
	  <path d="M23.06 57.9395C22.8 57.9395 22.54 57.8395 22.35 57.6495C22.05 57.3495 21.97 56.8995 22.15 56.5195L29.38 41.2595C29.75 40.4795 30.54 40.0395 31.39 40.1295C32.24 40.2195 32.93 40.8195 33.13 41.6595C33.43 42.9295 34.08 44.0895 35 45.0095C35.92 45.9295 37.08 46.5795 38.35 46.8795C38.89 47.0095 39.22 47.5495 39.09 48.0895C38.96 48.6295 38.42 48.9595 37.88 48.8295C36.25 48.4395 34.77 47.6095 33.58 46.4195C32.39 45.2295 31.56 43.7495 31.18 42.1195L25.16 54.8495L33.8 50.7595C34.3 50.5295 34.9 50.7395 35.13 51.2395C35.37 51.7395 35.15 52.3295 34.65 52.5695L23.48 57.8595C23.36 57.8995 23.21 57.9395 23.06 57.9395Z" fill="#000091"/>
  </symbol>
  <use class="fr-artwork-decorative" href="#artwork-decorative"/>
  <use class="fr-artwork-minor" href="#artwork-minor"/>
  <use class="fr-artwork-major" href="#artwork-major"/>
</svg>
