<svg width="80px" height="80px" viewBox="0 0 80 80" xmlns="http://www.w3.org/2000/svg">
 	<style>
		.fr-artwork-decorative {
			fill: #ECECFF;
		}
		.fr-artwork-minor {
			fill: #E1000F;
		}
		.fr-artwork-major {
			fill: #000091;
		}
	</style>
	<symbol id="artwork-decorative">
		<path fill-rule="evenodd" clip-rule="evenodd" d="M5.10001 46.6995C4.50001 46.6995 4.10001 46.2995 4.10001 45.6995C4.10001 45.0995 4.50001 44.6995 5.10001 44.6995C5.70001 44.6995 6.10001 45.0995 6.10001 45.6995C6.10001 46.2995 5.70001 46.6995 5.10001 46.6995Z" fill="#ECECFE"/>
		<path fill-rule="evenodd" clip-rule="evenodd" d="M41.1 5.99951C40.5 5.99951 40.1 5.59951 40.1 4.99951C40.1 4.39951 40.5 3.99951 41.1 3.99951C41.7 3.99951 42.1 4.39951 42.1 4.99951C42.1 5.59951 41.7 5.99951 41.1 5.99951Z" fill="#ECECFE"/>
		<path fill-rule="evenodd" clip-rule="evenodd" d="M70.9 27.9995C70.3 27.9995 69.9 27.5995 69.9 26.9995C69.9 26.3995 70.3 25.9995 70.9 25.9995C71.5 25.9995 71.9 26.3995 71.9 26.9995C71.9 27.5995 71.5 27.9995 70.9 27.9995Z" fill="#ECECFE"/>
		<path fill-rule="evenodd" clip-rule="evenodd" d="M29.7 73.4995C29.1 73.4995 28.7 73.0995 28.7 72.4995C28.7 71.8995 29.1 71.4995 29.7 71.4995C30.3 71.4995 30.7 71.8995 30.7 72.4995C30.7 72.9995 30.3 73.4995 29.7 73.4995Z" fill="#ECECFE"/>
		<path d="M17.6081 40.0331C17.056 40.9077 16.7766 41.7888 16.6364 42.4552C16.5666 42.7868 16.5324 43.0601 16.5157 43.2453C16.5073 43.3378 16.5034 43.4078 16.5016 43.4515C16.5007 43.4733 16.5003 43.4885 16.5001 43.4967L16.5 43.5014L16.5 43.5033C16.4978 44.0537 16.051 44.4993 15.5 44.4993C14.9477 44.4993 14.5 44.0515 14.5 43.4993V26.4993C14.5 25.947 14.9477 25.4993 15.5 25.4993C16.0523 25.4993 16.5 25.947 16.5 26.4993V38.1491V39.4995L17.6081 40.0331Z" fill="#E1000F"/>
		<path fill-rule="evenodd" clip-rule="evenodd" d="M57.6543 25.5115C58.1999 25.5967 58.5732 26.1081 58.488 26.6538L57.5 26.4995C58.488 26.6538 58.4881 26.6534 58.488 26.6538L58.4878 26.6553L58.4869 26.6611L58.4851 26.6718L58.4796 26.7033C58.475 26.7288 58.4686 26.7631 58.4598 26.8057C58.4424 26.8908 58.416 27.0092 58.3777 27.1569C58.3011 27.4521 58.177 27.8652 57.9823 28.3637C57.5929 29.3606 56.9203 30.7019 55.7805 32.1248C55.4352 32.5558 54.8058 32.6253 54.3748 32.28C53.9438 31.9347 53.8743 31.3053 54.2196 30.8743C55.2152 29.6314 55.7926 28.4726 56.1194 27.6361C56.2827 27.2178 56.3832 26.8806 56.4417 26.6549C56.4709 26.5421 56.4897 26.4574 56.5005 26.4044C56.5059 26.378 56.5094 26.3595 56.5112 26.3495L56.5121 26.3446C56.5123 26.3434 56.5125 26.3422 56.5127 26.341C56.5999 25.7976 57.11 25.4265 57.6543 25.5115ZM16.5 43.5007L16.5 43.5017L16.5 43.5032L16.5001 43.4977C16.5003 43.4899 16.5007 43.4749 16.5016 43.4534C16.5035 43.4103 16.5075 43.3409 16.5161 43.2491C16.5334 43.0652 16.5688 42.7933 16.641 42.4632C16.786 41.8003 17.0753 40.9217 17.6485 40.0482C18.7559 38.3609 21.0481 36.4995 26 36.4995C28.835 36.4995 30.935 36.623 32.7702 36.7472C32.9951 36.7625 33.2167 36.7778 33.4357 36.7929C34.998 36.9008 36.4281 36.9995 38 36.9995C38.5523 36.9995 39 36.5518 39 35.9995C39 35.4472 38.5523 34.9995 38 34.9995C36.5016 34.9995 35.1438 34.9059 33.5758 34.7978C33.3567 34.7827 33.1336 34.7673 32.9053 34.7518C31.049 34.6261 28.899 34.4995 26 34.4995C20.4519 34.4995 17.4941 36.6382 15.9765 38.9509C15.2372 40.0774 14.8703 41.1988 14.6872 42.0358C14.5953 42.4557 14.5486 42.8089 14.5249 43.0624C14.513 43.1894 14.5068 43.2919 14.5035 43.366C14.5019 43.403 14.501 43.433 14.5005 43.4554L14.5001 43.4833L14.5 43.4929L14.5 43.4966L14.5 43.4982C14.5 43.4989 14.5 43.4995 15.5 43.4995H14.5C14.5 44.0518 14.9477 44.4995 15.5 44.4995C16.0508 44.4995 16.4977 44.0535 16.5 43.5032C16.5 43.5022 16.5 43.5018 16.5 43.5007Z" fill="#E1000F"/>
		<path d="M50.0778 56.5105C49.8979 57.0327 50.1755 57.6018 50.6977 57.7816C52.784 58.5 55.0637 57.3882 55.782 55.3018C56.5004 53.2155 55.3885 50.9358 53.3022 50.2174C51.216 49.4991 48.9363 50.611 48.2179 52.6972C48.0381 53.2194 48.3157 53.7885 48.8379 53.9683C49.36 54.1481 49.9291 53.8706 50.1089 53.3484L50.1626 53.2094C50.5713 52.2578 51.6566 51.766 52.6511 52.1085C53.693 52.4672 54.2498 53.6088 53.891 54.6507C53.5322 55.6926 52.3908 56.2493 51.3488 55.8906C50.8266 55.7108 50.2576 55.9883 50.0778 56.5105Z" fill="#E1000F"/>
		<path fill-rule="evenodd" clip-rule="evenodd" d="M15.5 48.4995C12.4624 48.4995 10 50.9619 10 53.9995C10 57.0371 12.4624 59.4995 15.5 59.4995C18.5376 59.4995 21 57.0371 21 53.9995C21 50.9619 18.5376 48.4995 15.5 48.4995ZM8 53.9995C8 49.8574 11.3579 46.4995 15.5 46.4995C19.6421 46.4995 23 49.8574 23 53.9995C23 58.1416 19.6421 61.4995 15.5 61.4995C11.3579 61.4995 8 58.1416 8 53.9995Z" fill="#000091"/>
		<path fill-rule="evenodd" clip-rule="evenodd" d="M15.5 10.4995C12.4624 10.4995 10 12.9619 10 15.9995C10 19.0371 12.4624 21.4995 15.5 21.4995C18.5376 21.4995 21 19.0371 21 15.9995C21 12.9619 18.5376 10.4995 15.5 10.4995ZM8 15.9995C8 11.8574 11.3579 8.49951 15.5 8.49951C19.6421 8.49951 23 11.8574 23 15.9995C23 20.1416 19.6421 23.4995 15.5 23.4995C11.3579 23.4995 8 20.1416 8 15.9995Z" fill="#000091"/>
		<path fill-rule="evenodd" clip-rule="evenodd" d="M57.5 10.4995C54.4624 10.4995 52 12.9619 52 15.9995C52 19.0371 54.4624 21.4995 57.5 21.4995C60.5376 21.4995 63 19.0371 63 15.9995C63 12.9619 60.5376 10.4995 57.5 10.4995ZM50 15.9995C50 11.8574 53.3579 8.49951 57.5 8.49951C61.6421 8.49951 65 11.8574 65 15.9995C65 20.1416 61.6421 23.4995 57.5 23.4995C53.3579 23.4995 50 20.1416 50 15.9995Z" fill="#000091"/>
		<path fill-rule="evenodd" clip-rule="evenodd" d="M52 35.9995C42.0589 35.9995 34 44.0584 34 53.9995C34 57.4466 34.968 60.6645 36.6464 63.3998C37.9964 65.5997 39.8062 67.4877 41.9419 68.9295C42.3996 69.2385 42.5202 69.8601 42.2112 70.3178C41.9022 70.7755 41.2806 70.8961 40.8228 70.5871C38.451 68.9859 36.4414 66.8896 34.9418 64.4458C33.0757 61.4048 32 57.8263 32 53.9995C32 42.9538 40.9543 33.9995 52 33.9995C63.0457 33.9995 72 42.9538 72 53.9995C72 54.5518 71.5523 54.9995 71 54.9995C70.4477 54.9995 70 54.5518 70 53.9995C70 44.0584 61.9411 35.9995 52 35.9995Z" fill="#000091"/>
		<path d="M38.0026 52.9995L38.0032 52.4458L38.0192 52.2879C38.1275 51.6245 38.6703 51.1207 39.3329 51.0565L39.4766 51.0495L40.2574 51.05L40.3863 51.0467C40.9118 51.0137 41.3785 50.6941 41.6187 50.1843L41.8445 49.6449L41.9363 49.4387C42.169 48.9381 42.0878 48.3414 41.7338 47.9096L41.6305 47.7961L40.9977 47.1564L40.8885 47.0182C40.517 46.4768 40.55 45.7554 40.9616 45.2477L41.0633 45.1345L43.2099 42.9939L43.2757 42.9393C43.7006 42.5866 44.3311 42.6451 44.6838 43.0701C45.0094 43.4624 44.9846 44.0297 44.6446 44.3921L44.5531 44.4783L44.5557 44.4705L42.8454 46.1824L43.042 46.3792C44.0268 47.3552 44.3312 48.8217 43.8371 50.0793L43.6807 50.4373L43.5413 50.7669C43.0965 51.9981 41.9973 52.8664 40.6871 53.0252L40.4786 53.0443L40.287 53.0495L40.0004 53.0504V54.9504L40.282 54.9495C41.5818 54.9472 42.7702 55.6739 43.3671 56.8329L43.4564 57.0194L43.5231 57.185C43.5685 57.304 43.6166 57.4228 43.6652 57.5361L43.738 57.7012C44.2854 58.8789 44.1251 60.2576 43.3232 61.2923L43.1836 61.4615L43.046 61.6071L42.8404 61.8134L44.5491 63.522C44.9096 63.8825 44.9374 64.4497 44.6323 64.842L44.5491 64.9362C44.1887 65.2967 43.6214 65.3245 43.2291 65.0194L43.1349 64.9362L40.9947 62.79L40.8853 62.652C40.5131 62.111 40.545 61.3896 40.9563 60.8809L41.058 60.7674L41.6101 60.2152L41.7033 60.117C42.0792 59.6883 42.1682 59.0688 41.9208 58.5365C41.8586 58.3996 41.7977 58.2578 41.7416 58.1195L41.6152 57.7996C41.4074 57.3312 40.9483 57.0064 40.4273 56.9563L40.2838 56.9495L39.3962 56.9463L39.2383 56.9303C38.5749 56.8221 38.0711 56.2792 38.0069 55.6166L38 55.4729L38.0005 54.9995L38.0026 52.9995Z" fill="#000091"/>
		<path d="M54.8336 62.6323C53.6747 63.2293 52.9479 64.4176 52.9503 65.7175L52.951 65.9995H51.051L51.0502 65.7125L51.045 65.5209L51.0259 65.3123C50.8671 64.0022 49.9988 62.903 48.7676 62.4582L48.438 62.3188L48.267 62.2425L48.1577 62.2013C47.6798 62.0522 47.1554 62.2818 46.9472 62.7504C46.7229 63.2552 46.9503 63.8461 47.4551 64.0703L47.6457 64.155L48.185 64.3808C48.6948 64.6209 49.0144 65.0877 49.0474 65.6132L49.0507 65.7421L49.0502 66.5228L49.0572 66.6665C49.1214 67.3292 49.6252 67.872 50.2886 67.9802L50.4465 67.9963L53.4736 67.9995L53.6173 67.9926C54.2799 67.9284 54.8228 67.4246 54.931 66.7611L54.947 66.6033L54.9502 65.7157L54.957 65.5722C55.0071 65.0511 55.3319 64.5921 55.8003 64.3843L56.1208 64.2576C56.2594 64.2014 56.4018 64.1402 56.5406 64.0772C57.0705 63.8321 57.6882 63.9212 58.1187 64.2974L58.2173 64.3907L58.7696 64.943L58.8824 65.0443C59.3884 65.4545 60.1083 65.4894 60.6483 65.121L60.7866 65.0122L62.9381 62.8605L63.0395 62.7475C63.4502 62.2408 63.4832 61.5193 63.1117 60.9779L63.0025 60.8397L62.3697 60.2L62.2664 60.0865C61.9125 59.6547 61.8312 59.058 62.0639 58.5574C62.1315 58.4089 62.1935 58.2652 62.2508 58.1247L62.3279 57.9307L62.3862 57.7921C62.622 57.2997 63.0905 56.9812 63.6094 56.9516L63.7365 56.9492L64.5236 56.9495L64.6673 56.9426C65.3299 56.8784 65.8728 56.3746 65.981 55.7111L65.997 55.5533L66.0002 52.5262L65.9933 52.3825C65.9291 51.7199 65.4253 51.177 64.7619 51.0688L64.604 51.0528L63.7164 51.0495L63.5729 51.0428C63.0519 50.9927 62.5928 50.6678 62.385 50.1994L62.2586 49.8795C62.2025 49.7413 62.1417 49.5994 62.0794 49.4625C61.832 48.9302 61.921 48.3107 62.2969 47.882L62.3901 47.7838L62.9437 47.2302L63.0452 47.1172C63.456 46.6103 63.4897 45.8896 63.1194 45.3487L63.0104 45.2105L60.869 43.0628L60.7558 42.9611C60.2481 42.5495 59.5267 42.5165 58.9853 42.888L58.8471 42.9972L58.2037 43.6337L58.0907 43.736C57.6606 44.0864 57.0656 44.1669 56.5621 43.9346L56.359 43.8442L55.8267 43.6218C55.3096 43.3815 54.9875 42.9141 54.9533 42.385L54.9498 42.2551L54.9502 41.4762L54.9433 41.3325C54.8791 40.6699 54.3753 40.127 53.7119 40.0188L53.554 40.0028L50.5269 39.9995L50.3832 40.0064C49.7206 40.0707 49.1777 40.5744 49.0695 41.2379L49.0535 41.3958L49.0502 42.2834L49.0435 42.4269C48.9934 42.9479 48.6686 43.4069 48.2002 43.6147L47.8797 43.7414C47.7411 43.7976 47.5987 43.8588 47.4599 43.9219C46.9572 44.1504 46.7349 44.7433 46.9635 45.2461C47.1921 45.7488 47.7849 45.9711 48.2877 45.7425C48.4578 45.6652 48.6358 45.5909 48.8147 45.5227L48.9804 45.456L49.1669 45.3667C50.3258 44.7697 51.0526 43.5814 51.0502 42.2816L51.051 41.9995H52.951L52.9502 42.2865L52.9559 42.4809L52.9743 42.6804C53.1331 44.0003 54.0092 45.1048 55.2503 45.5457L55.5654 45.6799L55.737 45.7564L55.9243 45.8361C57.1834 46.3275 58.6431 46.0257 59.6185 45.0473L59.822 44.8445L61.162 46.1845L60.9542 46.392L60.8166 46.5376L60.677 46.7067C59.8752 47.7415 59.7148 49.1202 60.2622 50.2978L60.4073 50.6363L60.5438 50.9796L60.6331 51.1662C61.2301 52.3251 62.4184 53.0519 63.7182 53.0495L64.001 53.0495V54.9495H63.7133L63.5292 54.9535L63.3311 54.9703C62.0198 55.1183 60.9107 55.9852 60.4593 57.2182L60.3955 57.3781L60.3247 57.5461L60.2469 57.7217L60.1663 57.9098C59.669 59.1744 59.9735 60.6409 60.9582 61.6169L61.156 61.8155L59.816 63.1605L59.6078 62.9535L59.4605 62.8147L59.2913 62.6756C58.2569 61.8761 56.8829 61.7154 55.707 62.2592L55.4519 62.3702L55.0201 62.5431L54.8336 62.6323Z" fill="#000091"/>
	</symbol>
  <symbol id="artwork-minor">
	  <path fill-rule="evenodd" clip-rule="evenodd" d="M5.10001 46.6995C4.50001 46.6995 4.10001 46.2995 4.10001 45.6995C4.10001 45.0995 4.50001 44.6995 5.10001 44.6995C5.70001 44.6995 6.10001 45.0995 6.10001 45.6995C6.10001 46.2995 5.70001 46.6995 5.10001 46.6995Z" fill="#ECECFE"/>
	  <path fill-rule="evenodd" clip-rule="evenodd" d="M41.1 5.99951C40.5 5.99951 40.1 5.59951 40.1 4.99951C40.1 4.39951 40.5 3.99951 41.1 3.99951C41.7 3.99951 42.1 4.39951 42.1 4.99951C42.1 5.59951 41.7 5.99951 41.1 5.99951Z" fill="#ECECFE"/>
	  <path fill-rule="evenodd" clip-rule="evenodd" d="M70.9 27.9995C70.3 27.9995 69.9 27.5995 69.9 26.9995C69.9 26.3995 70.3 25.9995 70.9 25.9995C71.5 25.9995 71.9 26.3995 71.9 26.9995C71.9 27.5995 71.5 27.9995 70.9 27.9995Z" fill="#ECECFE"/>
	  <path fill-rule="evenodd" clip-rule="evenodd" d="M29.7 73.4995C29.1 73.4995 28.7 73.0995 28.7 72.4995C28.7 71.8995 29.1 71.4995 29.7 71.4995C30.3 71.4995 30.7 71.8995 30.7 72.4995C30.7 72.9995 30.3 73.4995 29.7 73.4995Z" fill="#ECECFE"/>
	  <path d="M17.6081 40.0331C17.056 40.9077 16.7766 41.7888 16.6364 42.4552C16.5666 42.7868 16.5324 43.0601 16.5157 43.2453C16.5073 43.3378 16.5034 43.4078 16.5016 43.4515C16.5007 43.4733 16.5003 43.4885 16.5001 43.4967L16.5 43.5014L16.5 43.5033C16.4978 44.0537 16.051 44.4993 15.5 44.4993C14.9477 44.4993 14.5 44.0515 14.5 43.4993V26.4993C14.5 25.947 14.9477 25.4993 15.5 25.4993C16.0523 25.4993 16.5 25.947 16.5 26.4993V38.1491V39.4995L17.6081 40.0331Z" fill="#E1000F"/>
	  <path fill-rule="evenodd" clip-rule="evenodd" d="M57.6543 25.5115C58.1999 25.5967 58.5732 26.1081 58.488 26.6538L57.5 26.4995C58.488 26.6538 58.4881 26.6534 58.488 26.6538L58.4878 26.6553L58.4869 26.6611L58.4851 26.6718L58.4796 26.7033C58.475 26.7288 58.4686 26.7631 58.4598 26.8057C58.4424 26.8908 58.416 27.0092 58.3777 27.1569C58.3011 27.4521 58.177 27.8652 57.9823 28.3637C57.5929 29.3606 56.9203 30.7019 55.7805 32.1248C55.4352 32.5558 54.8058 32.6253 54.3748 32.28C53.9438 31.9347 53.8743 31.3053 54.2196 30.8743C55.2152 29.6314 55.7926 28.4726 56.1194 27.6361C56.2827 27.2178 56.3832 26.8806 56.4417 26.6549C56.4709 26.5421 56.4897 26.4574 56.5005 26.4044C56.5059 26.378 56.5094 26.3595 56.5112 26.3495L56.5121 26.3446C56.5123 26.3434 56.5125 26.3422 56.5127 26.341C56.5999 25.7976 57.11 25.4265 57.6543 25.5115ZM16.5 43.5007L16.5 43.5017L16.5 43.5032L16.5001 43.4977C16.5003 43.4899 16.5007 43.4749 16.5016 43.4534C16.5035 43.4103 16.5075 43.3409 16.5161 43.2491C16.5334 43.0652 16.5688 42.7933 16.641 42.4632C16.786 41.8003 17.0753 40.9217 17.6485 40.0482C18.7559 38.3609 21.0481 36.4995 26 36.4995C28.835 36.4995 30.935 36.623 32.7702 36.7472C32.9951 36.7625 33.2167 36.7778 33.4357 36.7929C34.998 36.9008 36.4281 36.9995 38 36.9995C38.5523 36.9995 39 36.5518 39 35.9995C39 35.4472 38.5523 34.9995 38 34.9995C36.5016 34.9995 35.1438 34.9059 33.5758 34.7978C33.3567 34.7827 33.1336 34.7673 32.9053 34.7518C31.049 34.6261 28.899 34.4995 26 34.4995C20.4519 34.4995 17.4941 36.6382 15.9765 38.9509C15.2372 40.0774 14.8703 41.1988 14.6872 42.0358C14.5953 42.4557 14.5486 42.8089 14.5249 43.0624C14.513 43.1894 14.5068 43.2919 14.5035 43.366C14.5019 43.403 14.501 43.433 14.5005 43.4554L14.5001 43.4833L14.5 43.4929L14.5 43.4966L14.5 43.4982C14.5 43.4989 14.5 43.4995 15.5 43.4995H14.5C14.5 44.0518 14.9477 44.4995 15.5 44.4995C16.0508 44.4995 16.4977 44.0535 16.5 43.5032C16.5 43.5022 16.5 43.5018 16.5 43.5007Z" fill="#E1000F"/>
	  <path d="M50.0778 56.5105C49.8979 57.0327 50.1755 57.6018 50.6977 57.7816C52.784 58.5 55.0637 57.3882 55.782 55.3018C56.5004 53.2155 55.3885 50.9358 53.3022 50.2174C51.216 49.4991 48.9363 50.611 48.2179 52.6972C48.0381 53.2194 48.3157 53.7885 48.8379 53.9683C49.36 54.1481 49.9291 53.8706 50.1089 53.3484L50.1626 53.2094C50.5713 52.2578 51.6566 51.766 52.6511 52.1085C53.693 52.4672 54.2498 53.6088 53.891 54.6507C53.5322 55.6926 52.3908 56.2493 51.3488 55.8906C50.8266 55.7108 50.2576 55.9883 50.0778 56.5105Z" fill="#E1000F"/>
	  <path fill-rule="evenodd" clip-rule="evenodd" d="M15.5 48.4995C12.4624 48.4995 10 50.9619 10 53.9995C10 57.0371 12.4624 59.4995 15.5 59.4995C18.5376 59.4995 21 57.0371 21 53.9995C21 50.9619 18.5376 48.4995 15.5 48.4995ZM8 53.9995C8 49.8574 11.3579 46.4995 15.5 46.4995C19.6421 46.4995 23 49.8574 23 53.9995C23 58.1416 19.6421 61.4995 15.5 61.4995C11.3579 61.4995 8 58.1416 8 53.9995Z" fill="#000091"/>
	  <path fill-rule="evenodd" clip-rule="evenodd" d="M15.5 10.4995C12.4624 10.4995 10 12.9619 10 15.9995C10 19.0371 12.4624 21.4995 15.5 21.4995C18.5376 21.4995 21 19.0371 21 15.9995C21 12.9619 18.5376 10.4995 15.5 10.4995ZM8 15.9995C8 11.8574 11.3579 8.49951 15.5 8.49951C19.6421 8.49951 23 11.8574 23 15.9995C23 20.1416 19.6421 23.4995 15.5 23.4995C11.3579 23.4995 8 20.1416 8 15.9995Z" fill="#000091"/>
	  <path fill-rule="evenodd" clip-rule="evenodd" d="M57.5 10.4995C54.4624 10.4995 52 12.9619 52 15.9995C52 19.0371 54.4624 21.4995 57.5 21.4995C60.5376 21.4995 63 19.0371 63 15.9995C63 12.9619 60.5376 10.4995 57.5 10.4995ZM50 15.9995C50 11.8574 53.3579 8.49951 57.5 8.49951C61.6421 8.49951 65 11.8574 65 15.9995C65 20.1416 61.6421 23.4995 57.5 23.4995C53.3579 23.4995 50 20.1416 50 15.9995Z" fill="#000091"/>
	  <path fill-rule="evenodd" clip-rule="evenodd" d="M52 35.9995C42.0589 35.9995 34 44.0584 34 53.9995C34 57.4466 34.968 60.6645 36.6464 63.3998C37.9964 65.5997 39.8062 67.4877 41.9419 68.9295C42.3996 69.2385 42.5202 69.8601 42.2112 70.3178C41.9022 70.7755 41.2806 70.8961 40.8228 70.5871C38.451 68.9859 36.4414 66.8896 34.9418 64.4458C33.0757 61.4048 32 57.8263 32 53.9995C32 42.9538 40.9543 33.9995 52 33.9995C63.0457 33.9995 72 42.9538 72 53.9995C72 54.5518 71.5523 54.9995 71 54.9995C70.4477 54.9995 70 54.5518 70 53.9995C70 44.0584 61.9411 35.9995 52 35.9995Z" fill="#000091"/>
	  <path d="M38.0026 52.9995L38.0032 52.4458L38.0192 52.2879C38.1275 51.6245 38.6703 51.1207 39.3329 51.0565L39.4766 51.0495L40.2574 51.05L40.3863 51.0467C40.9118 51.0137 41.3785 50.6941 41.6187 50.1843L41.8445 49.6449L41.9363 49.4387C42.169 48.9381 42.0878 48.3414 41.7338 47.9096L41.6305 47.7961L40.9977 47.1564L40.8885 47.0182C40.517 46.4768 40.55 45.7554 40.9616 45.2477L41.0633 45.1345L43.2099 42.9939L43.2757 42.9393C43.7006 42.5866 44.3311 42.6451 44.6838 43.0701C45.0094 43.4624 44.9846 44.0297 44.6446 44.3921L44.5531 44.4783L44.5557 44.4705L42.8454 46.1824L43.042 46.3792C44.0268 47.3552 44.3312 48.8217 43.8371 50.0793L43.6807 50.4373L43.5413 50.7669C43.0965 51.9981 41.9973 52.8664 40.6871 53.0252L40.4786 53.0443L40.287 53.0495L40.0004 53.0504V54.9504L40.282 54.9495C41.5818 54.9472 42.7702 55.6739 43.3671 56.8329L43.4564 57.0194L43.5231 57.185C43.5685 57.304 43.6166 57.4228 43.6652 57.5361L43.738 57.7012C44.2854 58.8789 44.1251 60.2576 43.3232 61.2923L43.1836 61.4615L43.046 61.6071L42.8404 61.8134L44.5491 63.522C44.9096 63.8825 44.9374 64.4497 44.6323 64.842L44.5491 64.9362C44.1887 65.2967 43.6214 65.3245 43.2291 65.0194L43.1349 64.9362L40.9947 62.79L40.8853 62.652C40.5131 62.111 40.545 61.3896 40.9563 60.8809L41.058 60.7674L41.6101 60.2152L41.7033 60.117C42.0792 59.6883 42.1682 59.0688 41.9208 58.5365C41.8586 58.3996 41.7977 58.2578 41.7416 58.1195L41.6152 57.7996C41.4074 57.3312 40.9483 57.0064 40.4273 56.9563L40.2838 56.9495L39.3962 56.9463L39.2383 56.9303C38.5749 56.8221 38.0711 56.2792 38.0069 55.6166L38 55.4729L38.0005 54.9995L38.0026 52.9995Z" fill="#000091"/>
	  <path d="M54.8336 62.6323C53.6747 63.2293 52.9479 64.4176 52.9503 65.7175L52.951 65.9995H51.051L51.0502 65.7125L51.045 65.5209L51.0259 65.3123C50.8671 64.0022 49.9988 62.903 48.7676 62.4582L48.438 62.3188L48.267 62.2425L48.1577 62.2013C47.6798 62.0522 47.1554 62.2818 46.9472 62.7504C46.7229 63.2552 46.9503 63.8461 47.4551 64.0703L47.6457 64.155L48.185 64.3808C48.6948 64.6209 49.0144 65.0877 49.0474 65.6132L49.0507 65.7421L49.0502 66.5228L49.0572 66.6665C49.1214 67.3292 49.6252 67.872 50.2886 67.9802L50.4465 67.9963L53.4736 67.9995L53.6173 67.9926C54.2799 67.9284 54.8228 67.4246 54.931 66.7611L54.947 66.6033L54.9502 65.7157L54.957 65.5722C55.0071 65.0511 55.3319 64.5921 55.8003 64.3843L56.1208 64.2576C56.2594 64.2014 56.4018 64.1402 56.5406 64.0772C57.0705 63.8321 57.6882 63.9212 58.1187 64.2974L58.2173 64.3907L58.7696 64.943L58.8824 65.0443C59.3884 65.4545 60.1083 65.4894 60.6483 65.121L60.7866 65.0122L62.9381 62.8605L63.0395 62.7475C63.4502 62.2408 63.4832 61.5193 63.1117 60.9779L63.0025 60.8397L62.3697 60.2L62.2664 60.0865C61.9125 59.6547 61.8312 59.058 62.0639 58.5574C62.1315 58.4089 62.1935 58.2652 62.2508 58.1247L62.3279 57.9307L62.3862 57.7921C62.622 57.2997 63.0905 56.9812 63.6094 56.9516L63.7365 56.9492L64.5236 56.9495L64.6673 56.9426C65.3299 56.8784 65.8728 56.3746 65.981 55.7111L65.997 55.5533L66.0002 52.5262L65.9933 52.3825C65.9291 51.7199 65.4253 51.177 64.7619 51.0688L64.604 51.0528L63.7164 51.0495L63.5729 51.0428C63.0519 50.9927 62.5928 50.6678 62.385 50.1994L62.2586 49.8795C62.2025 49.7413 62.1417 49.5994 62.0794 49.4625C61.832 48.9302 61.921 48.3107 62.2969 47.882L62.3901 47.7838L62.9437 47.2302L63.0452 47.1172C63.456 46.6103 63.4897 45.8896 63.1194 45.3487L63.0104 45.2105L60.869 43.0628L60.7558 42.9611C60.2481 42.5495 59.5267 42.5165 58.9853 42.888L58.8471 42.9972L58.2037 43.6337L58.0907 43.736C57.6606 44.0864 57.0656 44.1669 56.5621 43.9346L56.359 43.8442L55.8267 43.6218C55.3096 43.3815 54.9875 42.9141 54.9533 42.385L54.9498 42.2551L54.9502 41.4762L54.9433 41.3325C54.8791 40.6699 54.3753 40.127 53.7119 40.0188L53.554 40.0028L50.5269 39.9995L50.3832 40.0064C49.7206 40.0707 49.1777 40.5744 49.0695 41.2379L49.0535 41.3958L49.0502 42.2834L49.0435 42.4269C48.9934 42.9479 48.6686 43.4069 48.2002 43.6147L47.8797 43.7414C47.7411 43.7976 47.5987 43.8588 47.4599 43.9219C46.9572 44.1504 46.7349 44.7433 46.9635 45.2461C47.1921 45.7488 47.7849 45.9711 48.2877 45.7425C48.4578 45.6652 48.6358 45.5909 48.8147 45.5227L48.9804 45.456L49.1669 45.3667C50.3258 44.7697 51.0526 43.5814 51.0502 42.2816L51.051 41.9995H52.951L52.9502 42.2865L52.9559 42.4809L52.9743 42.6804C53.1331 44.0003 54.0092 45.1048 55.2503 45.5457L55.5654 45.6799L55.737 45.7564L55.9243 45.8361C57.1834 46.3275 58.6431 46.0257 59.6185 45.0473L59.822 44.8445L61.162 46.1845L60.9542 46.392L60.8166 46.5376L60.677 46.7067C59.8752 47.7415 59.7148 49.1202 60.2622 50.2978L60.4073 50.6363L60.5438 50.9796L60.6331 51.1662C61.2301 52.3251 62.4184 53.0519 63.7182 53.0495L64.001 53.0495V54.9495H63.7133L63.5292 54.9535L63.3311 54.9703C62.0198 55.1183 60.9107 55.9852 60.4593 57.2182L60.3955 57.3781L60.3247 57.5461L60.2469 57.7217L60.1663 57.9098C59.669 59.1744 59.9735 60.6409 60.9582 61.6169L61.156 61.8155L59.816 63.1605L59.6078 62.9535L59.4605 62.8147L59.2913 62.6756C58.2569 61.8761 56.8829 61.7154 55.707 62.2592L55.4519 62.3702L55.0201 62.5431L54.8336 62.6323Z" fill="#000091"/>
  </symbol>
  <symbol id="artwork-major">
	  <path fill-rule="evenodd" clip-rule="evenodd" d="M5.10001 46.6995C4.50001 46.6995 4.10001 46.2995 4.10001 45.6995C4.10001 45.0995 4.50001 44.6995 5.10001 44.6995C5.70001 44.6995 6.10001 45.0995 6.10001 45.6995C6.10001 46.2995 5.70001 46.6995 5.10001 46.6995Z" fill="#ECECFE"/>
	  <path fill-rule="evenodd" clip-rule="evenodd" d="M41.1 5.99951C40.5 5.99951 40.1 5.59951 40.1 4.99951C40.1 4.39951 40.5 3.99951 41.1 3.99951C41.7 3.99951 42.1 4.39951 42.1 4.99951C42.1 5.59951 41.7 5.99951 41.1 5.99951Z" fill="#ECECFE"/>
	  <path fill-rule="evenodd" clip-rule="evenodd" d="M70.9 27.9995C70.3 27.9995 69.9 27.5995 69.9 26.9995C69.9 26.3995 70.3 25.9995 70.9 25.9995C71.5 25.9995 71.9 26.3995 71.9 26.9995C71.9 27.5995 71.5 27.9995 70.9 27.9995Z" fill="#ECECFE"/>
	  <path fill-rule="evenodd" clip-rule="evenodd" d="M29.7 73.4995C29.1 73.4995 28.7 73.0995 28.7 72.4995C28.7 71.8995 29.1 71.4995 29.7 71.4995C30.3 71.4995 30.7 71.8995 30.7 72.4995C30.7 72.9995 30.3 73.4995 29.7 73.4995Z" fill="#ECECFE"/>
	  <path d="M17.6081 40.0331C17.056 40.9077 16.7766 41.7888 16.6364 42.4552C16.5666 42.7868 16.5324 43.0601 16.5157 43.2453C16.5073 43.3378 16.5034 43.4078 16.5016 43.4515C16.5007 43.4733 16.5003 43.4885 16.5001 43.4967L16.5 43.5014L16.5 43.5033C16.4978 44.0537 16.051 44.4993 15.5 44.4993C14.9477 44.4993 14.5 44.0515 14.5 43.4993V26.4993C14.5 25.947 14.9477 25.4993 15.5 25.4993C16.0523 25.4993 16.5 25.947 16.5 26.4993V38.1491V39.4995L17.6081 40.0331Z" fill="#E1000F"/>
	  <path fill-rule="evenodd" clip-rule="evenodd" d="M57.6543 25.5115C58.1999 25.5967 58.5732 26.1081 58.488 26.6538L57.5 26.4995C58.488 26.6538 58.4881 26.6534 58.488 26.6538L58.4878 26.6553L58.4869 26.6611L58.4851 26.6718L58.4796 26.7033C58.475 26.7288 58.4686 26.7631 58.4598 26.8057C58.4424 26.8908 58.416 27.0092 58.3777 27.1569C58.3011 27.4521 58.177 27.8652 57.9823 28.3637C57.5929 29.3606 56.9203 30.7019 55.7805 32.1248C55.4352 32.5558 54.8058 32.6253 54.3748 32.28C53.9438 31.9347 53.8743 31.3053 54.2196 30.8743C55.2152 29.6314 55.7926 28.4726 56.1194 27.6361C56.2827 27.2178 56.3832 26.8806 56.4417 26.6549C56.4709 26.5421 56.4897 26.4574 56.5005 26.4044C56.5059 26.378 56.5094 26.3595 56.5112 26.3495L56.5121 26.3446C56.5123 26.3434 56.5125 26.3422 56.5127 26.341C56.5999 25.7976 57.11 25.4265 57.6543 25.5115ZM16.5 43.5007L16.5 43.5017L16.5 43.5032L16.5001 43.4977C16.5003 43.4899 16.5007 43.4749 16.5016 43.4534C16.5035 43.4103 16.5075 43.3409 16.5161 43.2491C16.5334 43.0652 16.5688 42.7933 16.641 42.4632C16.786 41.8003 17.0753 40.9217 17.6485 40.0482C18.7559 38.3609 21.0481 36.4995 26 36.4995C28.835 36.4995 30.935 36.623 32.7702 36.7472C32.9951 36.7625 33.2167 36.7778 33.4357 36.7929C34.998 36.9008 36.4281 36.9995 38 36.9995C38.5523 36.9995 39 36.5518 39 35.9995C39 35.4472 38.5523 34.9995 38 34.9995C36.5016 34.9995 35.1438 34.9059 33.5758 34.7978C33.3567 34.7827 33.1336 34.7673 32.9053 34.7518C31.049 34.6261 28.899 34.4995 26 34.4995C20.4519 34.4995 17.4941 36.6382 15.9765 38.9509C15.2372 40.0774 14.8703 41.1988 14.6872 42.0358C14.5953 42.4557 14.5486 42.8089 14.5249 43.0624C14.513 43.1894 14.5068 43.2919 14.5035 43.366C14.5019 43.403 14.501 43.433 14.5005 43.4554L14.5001 43.4833L14.5 43.4929L14.5 43.4966L14.5 43.4982C14.5 43.4989 14.5 43.4995 15.5 43.4995H14.5C14.5 44.0518 14.9477 44.4995 15.5 44.4995C16.0508 44.4995 16.4977 44.0535 16.5 43.5032C16.5 43.5022 16.5 43.5018 16.5 43.5007Z" fill="#E1000F"/>
	  <path d="M50.0778 56.5105C49.8979 57.0327 50.1755 57.6018 50.6977 57.7816C52.784 58.5 55.0637 57.3882 55.782 55.3018C56.5004 53.2155 55.3885 50.9358 53.3022 50.2174C51.216 49.4991 48.9363 50.611 48.2179 52.6972C48.0381 53.2194 48.3157 53.7885 48.8379 53.9683C49.36 54.1481 49.9291 53.8706 50.1089 53.3484L50.1626 53.2094C50.5713 52.2578 51.6566 51.766 52.6511 52.1085C53.693 52.4672 54.2498 53.6088 53.891 54.6507C53.5322 55.6926 52.3908 56.2493 51.3488 55.8906C50.8266 55.7108 50.2576 55.9883 50.0778 56.5105Z" fill="#E1000F"/>
	  <path fill-rule="evenodd" clip-rule="evenodd" d="M15.5 48.4995C12.4624 48.4995 10 50.9619 10 53.9995C10 57.0371 12.4624 59.4995 15.5 59.4995C18.5376 59.4995 21 57.0371 21 53.9995C21 50.9619 18.5376 48.4995 15.5 48.4995ZM8 53.9995C8 49.8574 11.3579 46.4995 15.5 46.4995C19.6421 46.4995 23 49.8574 23 53.9995C23 58.1416 19.6421 61.4995 15.5 61.4995C11.3579 61.4995 8 58.1416 8 53.9995Z" fill="#000091"/>
	  <path fill-rule="evenodd" clip-rule="evenodd" d="M15.5 10.4995C12.4624 10.4995 10 12.9619 10 15.9995C10 19.0371 12.4624 21.4995 15.5 21.4995C18.5376 21.4995 21 19.0371 21 15.9995C21 12.9619 18.5376 10.4995 15.5 10.4995ZM8 15.9995C8 11.8574 11.3579 8.49951 15.5 8.49951C19.6421 8.49951 23 11.8574 23 15.9995C23 20.1416 19.6421 23.4995 15.5 23.4995C11.3579 23.4995 8 20.1416 8 15.9995Z" fill="#000091"/>
	  <path fill-rule="evenodd" clip-rule="evenodd" d="M57.5 10.4995C54.4624 10.4995 52 12.9619 52 15.9995C52 19.0371 54.4624 21.4995 57.5 21.4995C60.5376 21.4995 63 19.0371 63 15.9995C63 12.9619 60.5376 10.4995 57.5 10.4995ZM50 15.9995C50 11.8574 53.3579 8.49951 57.5 8.49951C61.6421 8.49951 65 11.8574 65 15.9995C65 20.1416 61.6421 23.4995 57.5 23.4995C53.3579 23.4995 50 20.1416 50 15.9995Z" fill="#000091"/>
	  <path fill-rule="evenodd" clip-rule="evenodd" d="M52 35.9995C42.0589 35.9995 34 44.0584 34 53.9995C34 57.4466 34.968 60.6645 36.6464 63.3998C37.9964 65.5997 39.8062 67.4877 41.9419 68.9295C42.3996 69.2385 42.5202 69.8601 42.2112 70.3178C41.9022 70.7755 41.2806 70.8961 40.8228 70.5871C38.451 68.9859 36.4414 66.8896 34.9418 64.4458C33.0757 61.4048 32 57.8263 32 53.9995C32 42.9538 40.9543 33.9995 52 33.9995C63.0457 33.9995 72 42.9538 72 53.9995C72 54.5518 71.5523 54.9995 71 54.9995C70.4477 54.9995 70 54.5518 70 53.9995C70 44.0584 61.9411 35.9995 52 35.9995Z" fill="#000091"/>
	  <path d="M38.0026 52.9995L38.0032 52.4458L38.0192 52.2879C38.1275 51.6245 38.6703 51.1207 39.3329 51.0565L39.4766 51.0495L40.2574 51.05L40.3863 51.0467C40.9118 51.0137 41.3785 50.6941 41.6187 50.1843L41.8445 49.6449L41.9363 49.4387C42.169 48.9381 42.0878 48.3414 41.7338 47.9096L41.6305 47.7961L40.9977 47.1564L40.8885 47.0182C40.517 46.4768 40.55 45.7554 40.9616 45.2477L41.0633 45.1345L43.2099 42.9939L43.2757 42.9393C43.7006 42.5866 44.3311 42.6451 44.6838 43.0701C45.0094 43.4624 44.9846 44.0297 44.6446 44.3921L44.5531 44.4783L44.5557 44.4705L42.8454 46.1824L43.042 46.3792C44.0268 47.3552 44.3312 48.8217 43.8371 50.0793L43.6807 50.4373L43.5413 50.7669C43.0965 51.9981 41.9973 52.8664 40.6871 53.0252L40.4786 53.0443L40.287 53.0495L40.0004 53.0504V54.9504L40.282 54.9495C41.5818 54.9472 42.7702 55.6739 43.3671 56.8329L43.4564 57.0194L43.5231 57.185C43.5685 57.304 43.6166 57.4228 43.6652 57.5361L43.738 57.7012C44.2854 58.8789 44.1251 60.2576 43.3232 61.2923L43.1836 61.4615L43.046 61.6071L42.8404 61.8134L44.5491 63.522C44.9096 63.8825 44.9374 64.4497 44.6323 64.842L44.5491 64.9362C44.1887 65.2967 43.6214 65.3245 43.2291 65.0194L43.1349 64.9362L40.9947 62.79L40.8853 62.652C40.5131 62.111 40.545 61.3896 40.9563 60.8809L41.058 60.7674L41.6101 60.2152L41.7033 60.117C42.0792 59.6883 42.1682 59.0688 41.9208 58.5365C41.8586 58.3996 41.7977 58.2578 41.7416 58.1195L41.6152 57.7996C41.4074 57.3312 40.9483 57.0064 40.4273 56.9563L40.2838 56.9495L39.3962 56.9463L39.2383 56.9303C38.5749 56.8221 38.0711 56.2792 38.0069 55.6166L38 55.4729L38.0005 54.9995L38.0026 52.9995Z" fill="#000091"/>
	  <path d="M54.8336 62.6323C53.6747 63.2293 52.9479 64.4176 52.9503 65.7175L52.951 65.9995H51.051L51.0502 65.7125L51.045 65.5209L51.0259 65.3123C50.8671 64.0022 49.9988 62.903 48.7676 62.4582L48.438 62.3188L48.267 62.2425L48.1577 62.2013C47.6798 62.0522 47.1554 62.2818 46.9472 62.7504C46.7229 63.2552 46.9503 63.8461 47.4551 64.0703L47.6457 64.155L48.185 64.3808C48.6948 64.6209 49.0144 65.0877 49.0474 65.6132L49.0507 65.7421L49.0502 66.5228L49.0572 66.6665C49.1214 67.3292 49.6252 67.872 50.2886 67.9802L50.4465 67.9963L53.4736 67.9995L53.6173 67.9926C54.2799 67.9284 54.8228 67.4246 54.931 66.7611L54.947 66.6033L54.9502 65.7157L54.957 65.5722C55.0071 65.0511 55.3319 64.5921 55.8003 64.3843L56.1208 64.2576C56.2594 64.2014 56.4018 64.1402 56.5406 64.0772C57.0705 63.8321 57.6882 63.9212 58.1187 64.2974L58.2173 64.3907L58.7696 64.943L58.8824 65.0443C59.3884 65.4545 60.1083 65.4894 60.6483 65.121L60.7866 65.0122L62.9381 62.8605L63.0395 62.7475C63.4502 62.2408 63.4832 61.5193 63.1117 60.9779L63.0025 60.8397L62.3697 60.2L62.2664 60.0865C61.9125 59.6547 61.8312 59.058 62.0639 58.5574C62.1315 58.4089 62.1935 58.2652 62.2508 58.1247L62.3279 57.9307L62.3862 57.7921C62.622 57.2997 63.0905 56.9812 63.6094 56.9516L63.7365 56.9492L64.5236 56.9495L64.6673 56.9426C65.3299 56.8784 65.8728 56.3746 65.981 55.7111L65.997 55.5533L66.0002 52.5262L65.9933 52.3825C65.9291 51.7199 65.4253 51.177 64.7619 51.0688L64.604 51.0528L63.7164 51.0495L63.5729 51.0428C63.0519 50.9927 62.5928 50.6678 62.385 50.1994L62.2586 49.8795C62.2025 49.7413 62.1417 49.5994 62.0794 49.4625C61.832 48.9302 61.921 48.3107 62.2969 47.882L62.3901 47.7838L62.9437 47.2302L63.0452 47.1172C63.456 46.6103 63.4897 45.8896 63.1194 45.3487L63.0104 45.2105L60.869 43.0628L60.7558 42.9611C60.2481 42.5495 59.5267 42.5165 58.9853 42.888L58.8471 42.9972L58.2037 43.6337L58.0907 43.736C57.6606 44.0864 57.0656 44.1669 56.5621 43.9346L56.359 43.8442L55.8267 43.6218C55.3096 43.3815 54.9875 42.9141 54.9533 42.385L54.9498 42.2551L54.9502 41.4762L54.9433 41.3325C54.8791 40.6699 54.3753 40.127 53.7119 40.0188L53.554 40.0028L50.5269 39.9995L50.3832 40.0064C49.7206 40.0707 49.1777 40.5744 49.0695 41.2379L49.0535 41.3958L49.0502 42.2834L49.0435 42.4269C48.9934 42.9479 48.6686 43.4069 48.2002 43.6147L47.8797 43.7414C47.7411 43.7976 47.5987 43.8588 47.4599 43.9219C46.9572 44.1504 46.7349 44.7433 46.9635 45.2461C47.1921 45.7488 47.7849 45.9711 48.2877 45.7425C48.4578 45.6652 48.6358 45.5909 48.8147 45.5227L48.9804 45.456L49.1669 45.3667C50.3258 44.7697 51.0526 43.5814 51.0502 42.2816L51.051 41.9995H52.951L52.9502 42.2865L52.9559 42.4809L52.9743 42.6804C53.1331 44.0003 54.0092 45.1048 55.2503 45.5457L55.5654 45.6799L55.737 45.7564L55.9243 45.8361C57.1834 46.3275 58.6431 46.0257 59.6185 45.0473L59.822 44.8445L61.162 46.1845L60.9542 46.392L60.8166 46.5376L60.677 46.7067C59.8752 47.7415 59.7148 49.1202 60.2622 50.2978L60.4073 50.6363L60.5438 50.9796L60.6331 51.1662C61.2301 52.3251 62.4184 53.0519 63.7182 53.0495L64.001 53.0495V54.9495H63.7133L63.5292 54.9535L63.3311 54.9703C62.0198 55.1183 60.9107 55.9852 60.4593 57.2182L60.3955 57.3781L60.3247 57.5461L60.2469 57.7217L60.1663 57.9098C59.669 59.1744 59.9735 60.6409 60.9582 61.6169L61.156 61.8155L59.816 63.1605L59.6078 62.9535L59.4605 62.8147L59.2913 62.6756C58.2569 61.8761 56.8829 61.7154 55.707 62.2592L55.4519 62.3702L55.0201 62.5431L54.8336 62.6323Z" fill="#000091"/>
  </symbol>
  <use class="fr-artwork-decorative" href="#artwork-decorative"/>
  <use class="fr-artwork-minor" href="#artwork-minor"/>
  <use class="fr-artwork-major" href="#artwork-major"/>
</svg>
